<mxfile host="Electron" agent="Mozilla/5.0 (Windows NT 10.0; Win64; x64) AppleWebKit/537.36 (KHTML, like Gecko) draw.io/24.7.8 Chrome/128.0.6613.36 Electron/32.0.1 Safari/537.36" version="24.7.8">
  <diagram name="Page-1" id="824zz7JfVUu6TqduE4hY">
    <mxGraphModel dx="1292" dy="974" grid="1" gridSize="10" guides="1" tooltips="1" connect="1" arrows="1" fold="1" page="1" pageScale="1" pageWidth="827" pageHeight="1169" math="0" shadow="0">
      <root>
        <mxCell id="0" />
        <mxCell id="1" parent="0" />
        <mxCell id="NmG1TvLli8cGvgfPySn2-1" value="" style="rounded=0;whiteSpace=wrap;html=1;" vertex="1" parent="1">
          <mxGeometry x="320" y="350" width="160" height="390" as="geometry" />
        </mxCell>
        <mxCell id="NmG1TvLli8cGvgfPySn2-2" value="" style="rounded=0;whiteSpace=wrap;html=1;fillColor=#4D4D4D;" vertex="1" parent="1">
          <mxGeometry x="380" y="710" width="40" height="30" as="geometry" />
        </mxCell>
        <mxCell id="NmG1TvLli8cGvgfPySn2-3" style="edgeStyle=orthogonalEdgeStyle;rounded=0;orthogonalLoop=1;jettySize=auto;html=1;entryX=0.5;entryY=1;entryDx=0;entryDy=0;endArrow=none;endFill=0;strokeColor=#CC6600;" edge="1" parent="1" source="NmG1TvLli8cGvgfPySn2-4" target="NmG1TvLli8cGvgfPySn2-132">
          <mxGeometry relative="1" as="geometry">
            <Array as="points">
              <mxPoint x="290" y="625" />
              <mxPoint x="290" y="330" />
              <mxPoint x="679" y="330" />
            </Array>
          </mxGeometry>
        </mxCell>
        <mxCell id="NmG1TvLli8cGvgfPySn2-4" value="" style="ellipse;whiteSpace=wrap;html=1;aspect=fixed;" vertex="1" parent="1">
          <mxGeometry x="330" y="620" width="10" height="10" as="geometry" />
        </mxCell>
        <mxCell id="NmG1TvLli8cGvgfPySn2-5" value="" style="ellipse;whiteSpace=wrap;html=1;aspect=fixed;" vertex="1" parent="1">
          <mxGeometry x="330" y="600" width="10" height="10" as="geometry" />
        </mxCell>
        <mxCell id="NmG1TvLli8cGvgfPySn2-6" value="" style="ellipse;whiteSpace=wrap;html=1;aspect=fixed;" vertex="1" parent="1">
          <mxGeometry x="330" y="580" width="10" height="10" as="geometry" />
        </mxCell>
        <mxCell id="NmG1TvLli8cGvgfPySn2-7" value="" style="ellipse;whiteSpace=wrap;html=1;aspect=fixed;" vertex="1" parent="1">
          <mxGeometry x="330" y="560" width="10" height="10" as="geometry" />
        </mxCell>
        <mxCell id="NmG1TvLli8cGvgfPySn2-8" value="" style="ellipse;whiteSpace=wrap;html=1;aspect=fixed;" vertex="1" parent="1">
          <mxGeometry x="330" y="540" width="10" height="10" as="geometry" />
        </mxCell>
        <mxCell id="NmG1TvLli8cGvgfPySn2-9" value="" style="ellipse;whiteSpace=wrap;html=1;aspect=fixed;" vertex="1" parent="1">
          <mxGeometry x="330" y="520" width="10" height="10" as="geometry" />
        </mxCell>
        <mxCell id="NmG1TvLli8cGvgfPySn2-10" value="" style="ellipse;whiteSpace=wrap;html=1;aspect=fixed;" vertex="1" parent="1">
          <mxGeometry x="330" y="500" width="10" height="10" as="geometry" />
        </mxCell>
        <mxCell id="NmG1TvLli8cGvgfPySn2-11" value="" style="ellipse;whiteSpace=wrap;html=1;aspect=fixed;" vertex="1" parent="1">
          <mxGeometry x="330" y="480" width="10" height="10" as="geometry" />
        </mxCell>
        <mxCell id="NmG1TvLli8cGvgfPySn2-12" value="" style="ellipse;whiteSpace=wrap;html=1;aspect=fixed;" vertex="1" parent="1">
          <mxGeometry x="330" y="460" width="10" height="10" as="geometry" />
        </mxCell>
        <mxCell id="NmG1TvLli8cGvgfPySn2-13" value="" style="ellipse;whiteSpace=wrap;html=1;aspect=fixed;" vertex="1" parent="1">
          <mxGeometry x="330" y="440" width="10" height="10" as="geometry" />
        </mxCell>
        <mxCell id="NmG1TvLli8cGvgfPySn2-14" value="" style="ellipse;whiteSpace=wrap;html=1;aspect=fixed;" vertex="1" parent="1">
          <mxGeometry x="330" y="420" width="10" height="10" as="geometry" />
        </mxCell>
        <mxCell id="NmG1TvLli8cGvgfPySn2-15" value="" style="ellipse;whiteSpace=wrap;html=1;aspect=fixed;" vertex="1" parent="1">
          <mxGeometry x="330" y="400" width="10" height="10" as="geometry" />
        </mxCell>
        <mxCell id="NmG1TvLli8cGvgfPySn2-16" value="" style="ellipse;whiteSpace=wrap;html=1;aspect=fixed;" vertex="1" parent="1">
          <mxGeometry x="330" y="380" width="10" height="10" as="geometry" />
        </mxCell>
        <mxCell id="NmG1TvLli8cGvgfPySn2-17" value="" style="ellipse;whiteSpace=wrap;html=1;aspect=fixed;" vertex="1" parent="1">
          <mxGeometry x="330" y="360" width="10" height="10" as="geometry" />
        </mxCell>
        <mxCell id="NmG1TvLli8cGvgfPySn2-18" value="" style="ellipse;whiteSpace=wrap;html=1;aspect=fixed;" vertex="1" parent="1">
          <mxGeometry x="330" y="720" width="10" height="10" as="geometry" />
        </mxCell>
        <mxCell id="NmG1TvLli8cGvgfPySn2-19" value="" style="ellipse;whiteSpace=wrap;html=1;aspect=fixed;" vertex="1" parent="1">
          <mxGeometry x="330" y="700" width="10" height="10" as="geometry" />
        </mxCell>
        <mxCell id="NmG1TvLli8cGvgfPySn2-20" value="" style="ellipse;whiteSpace=wrap;html=1;aspect=fixed;" vertex="1" parent="1">
          <mxGeometry x="330" y="680" width="10" height="10" as="geometry" />
        </mxCell>
        <mxCell id="NmG1TvLli8cGvgfPySn2-21" value="" style="ellipse;whiteSpace=wrap;html=1;aspect=fixed;" vertex="1" parent="1">
          <mxGeometry x="330" y="660" width="10" height="10" as="geometry" />
        </mxCell>
        <mxCell id="NmG1TvLli8cGvgfPySn2-22" value="" style="ellipse;whiteSpace=wrap;html=1;aspect=fixed;" vertex="1" parent="1">
          <mxGeometry x="330" y="640" width="10" height="10" as="geometry" />
        </mxCell>
        <mxCell id="NmG1TvLli8cGvgfPySn2-23" value="" style="ellipse;whiteSpace=wrap;html=1;aspect=fixed;" vertex="1" parent="1">
          <mxGeometry x="460" y="620" width="10" height="10" as="geometry" />
        </mxCell>
        <mxCell id="NmG1TvLli8cGvgfPySn2-24" value="" style="ellipse;whiteSpace=wrap;html=1;aspect=fixed;" vertex="1" parent="1">
          <mxGeometry x="460" y="600" width="10" height="10" as="geometry" />
        </mxCell>
        <mxCell id="NmG1TvLli8cGvgfPySn2-25" value="" style="ellipse;whiteSpace=wrap;html=1;aspect=fixed;" vertex="1" parent="1">
          <mxGeometry x="460" y="580" width="10" height="10" as="geometry" />
        </mxCell>
        <mxCell id="NmG1TvLli8cGvgfPySn2-26" value="" style="ellipse;whiteSpace=wrap;html=1;aspect=fixed;" vertex="1" parent="1">
          <mxGeometry x="460" y="560" width="10" height="10" as="geometry" />
        </mxCell>
        <mxCell id="NmG1TvLli8cGvgfPySn2-27" value="" style="ellipse;whiteSpace=wrap;html=1;aspect=fixed;" vertex="1" parent="1">
          <mxGeometry x="460" y="540" width="10" height="10" as="geometry" />
        </mxCell>
        <mxCell id="NmG1TvLli8cGvgfPySn2-28" value="" style="ellipse;whiteSpace=wrap;html=1;aspect=fixed;" vertex="1" parent="1">
          <mxGeometry x="460" y="520" width="10" height="10" as="geometry" />
        </mxCell>
        <mxCell id="NmG1TvLli8cGvgfPySn2-29" value="" style="ellipse;whiteSpace=wrap;html=1;aspect=fixed;" vertex="1" parent="1">
          <mxGeometry x="460" y="500" width="10" height="10" as="geometry" />
        </mxCell>
        <mxCell id="NmG1TvLli8cGvgfPySn2-30" value="" style="ellipse;whiteSpace=wrap;html=1;aspect=fixed;" vertex="1" parent="1">
          <mxGeometry x="460" y="480" width="10" height="10" as="geometry" />
        </mxCell>
        <mxCell id="NmG1TvLli8cGvgfPySn2-31" value="" style="ellipse;whiteSpace=wrap;html=1;aspect=fixed;" vertex="1" parent="1">
          <mxGeometry x="460" y="460" width="10" height="10" as="geometry" />
        </mxCell>
        <mxCell id="NmG1TvLli8cGvgfPySn2-32" value="" style="ellipse;whiteSpace=wrap;html=1;aspect=fixed;" vertex="1" parent="1">
          <mxGeometry x="460" y="440" width="10" height="10" as="geometry" />
        </mxCell>
        <mxCell id="NmG1TvLli8cGvgfPySn2-33" value="" style="ellipse;whiteSpace=wrap;html=1;aspect=fixed;" vertex="1" parent="1">
          <mxGeometry x="460" y="420" width="10" height="10" as="geometry" />
        </mxCell>
        <mxCell id="NmG1TvLli8cGvgfPySn2-34" value="" style="ellipse;whiteSpace=wrap;html=1;aspect=fixed;" vertex="1" parent="1">
          <mxGeometry x="460" y="400" width="10" height="10" as="geometry" />
        </mxCell>
        <mxCell id="NmG1TvLli8cGvgfPySn2-35" value="" style="ellipse;whiteSpace=wrap;html=1;aspect=fixed;" vertex="1" parent="1">
          <mxGeometry x="460" y="380" width="10" height="10" as="geometry" />
        </mxCell>
        <mxCell id="NmG1TvLli8cGvgfPySn2-36" value="" style="ellipse;whiteSpace=wrap;html=1;aspect=fixed;" vertex="1" parent="1">
          <mxGeometry x="460" y="360" width="10" height="10" as="geometry" />
        </mxCell>
        <mxCell id="NmG1TvLli8cGvgfPySn2-37" value="" style="ellipse;whiteSpace=wrap;html=1;aspect=fixed;" vertex="1" parent="1">
          <mxGeometry x="460" y="720" width="10" height="10" as="geometry" />
        </mxCell>
        <mxCell id="NmG1TvLli8cGvgfPySn2-38" value="" style="ellipse;whiteSpace=wrap;html=1;aspect=fixed;" vertex="1" parent="1">
          <mxGeometry x="460" y="700" width="10" height="10" as="geometry" />
        </mxCell>
        <mxCell id="NmG1TvLli8cGvgfPySn2-39" value="" style="ellipse;whiteSpace=wrap;html=1;aspect=fixed;" vertex="1" parent="1">
          <mxGeometry x="460" y="680" width="10" height="10" as="geometry" />
        </mxCell>
        <mxCell id="NmG1TvLli8cGvgfPySn2-40" value="" style="ellipse;whiteSpace=wrap;html=1;aspect=fixed;" vertex="1" parent="1">
          <mxGeometry x="460" y="660" width="10" height="10" as="geometry" />
        </mxCell>
        <mxCell id="NmG1TvLli8cGvgfPySn2-41" value="" style="ellipse;whiteSpace=wrap;html=1;aspect=fixed;" vertex="1" parent="1">
          <mxGeometry x="460" y="640" width="10" height="10" as="geometry" />
        </mxCell>
        <mxCell id="NmG1TvLli8cGvgfPySn2-42" value="ESP32&lt;div style=&quot;font-size: 6px;&quot;&gt;Wifi&lt;/div&gt;" style="rounded=0;whiteSpace=wrap;html=1;" vertex="1" parent="1">
          <mxGeometry x="360" y="360" width="80" height="80" as="geometry" />
        </mxCell>
        <mxCell id="NmG1TvLli8cGvgfPySn2-43" value="" style="rounded=0;whiteSpace=wrap;html=1;" vertex="1" parent="1">
          <mxGeometry x="375" y="720" width="50" height="30" as="geometry" />
        </mxCell>
        <mxCell id="NmG1TvLli8cGvgfPySn2-44" value="" style="endArrow=none;html=1;rounded=0;" edge="1" parent="1">
          <mxGeometry width="50" height="50" relative="1" as="geometry">
            <mxPoint x="390" y="710" as="sourcePoint" />
            <mxPoint x="390" y="700" as="targetPoint" />
          </mxGeometry>
        </mxCell>
        <mxCell id="NmG1TvLli8cGvgfPySn2-45" value="" style="endArrow=none;html=1;rounded=0;" edge="1" parent="1">
          <mxGeometry width="50" height="50" relative="1" as="geometry">
            <mxPoint x="399.9" y="710" as="sourcePoint" />
            <mxPoint x="399.9" y="700" as="targetPoint" />
          </mxGeometry>
        </mxCell>
        <mxCell id="NmG1TvLli8cGvgfPySn2-46" value="" style="endArrow=none;html=1;rounded=0;" edge="1" parent="1">
          <mxGeometry width="50" height="50" relative="1" as="geometry">
            <mxPoint x="409.9" y="710" as="sourcePoint" />
            <mxPoint x="409.9" y="700" as="targetPoint" />
          </mxGeometry>
        </mxCell>
        <mxCell id="NmG1TvLli8cGvgfPySn2-47" value="" style="rounded=0;whiteSpace=wrap;html=1;" vertex="1" parent="1">
          <mxGeometry x="375" y="700" width="5" height="30" as="geometry" />
        </mxCell>
        <mxCell id="NmG1TvLli8cGvgfPySn2-48" value="" style="rounded=0;whiteSpace=wrap;html=1;" vertex="1" parent="1">
          <mxGeometry x="420" y="700" width="5" height="30" as="geometry" />
        </mxCell>
        <mxCell id="NmG1TvLli8cGvgfPySn2-49" value="" style="rounded=0;whiteSpace=wrap;html=1;" vertex="1" parent="1">
          <mxGeometry x="357.5" y="692.5" width="5" height="35" as="geometry" />
        </mxCell>
        <mxCell id="NmG1TvLli8cGvgfPySn2-50" value="" style="rounded=0;whiteSpace=wrap;html=1;" vertex="1" parent="1">
          <mxGeometry x="350" y="700" width="20" height="20" as="geometry" />
        </mxCell>
        <mxCell id="NmG1TvLli8cGvgfPySn2-51" value="" style="rounded=0;whiteSpace=wrap;html=1;" vertex="1" parent="1">
          <mxGeometry x="437.5" y="692.5" width="5" height="35" as="geometry" />
        </mxCell>
        <mxCell id="NmG1TvLli8cGvgfPySn2-52" value="" style="rounded=0;whiteSpace=wrap;html=1;" vertex="1" parent="1">
          <mxGeometry x="430" y="700" width="20" height="20" as="geometry" />
        </mxCell>
        <mxCell id="NmG1TvLli8cGvgfPySn2-53" value="" style="ellipse;whiteSpace=wrap;html=1;aspect=fixed;fillColor=#4D4D4D;" vertex="1" parent="1">
          <mxGeometry x="435" y="705" width="10" height="10" as="geometry" />
        </mxCell>
        <mxCell id="NmG1TvLli8cGvgfPySn2-54" value="" style="ellipse;whiteSpace=wrap;html=1;aspect=fixed;fillColor=#4D4D4D;" vertex="1" parent="1">
          <mxGeometry x="355" y="705" width="10" height="10" as="geometry" />
        </mxCell>
        <mxCell id="NmG1TvLli8cGvgfPySn2-55" value="" style="rounded=0;whiteSpace=wrap;html=1;fillColor=#4D4D4D;" vertex="1" parent="1">
          <mxGeometry x="360" y="560" width="80" height="70" as="geometry" />
        </mxCell>
        <mxCell id="NmG1TvLli8cGvgfPySn2-56" value="" style="rounded=0;whiteSpace=wrap;html=1;fillColor=#4D4D4D;" vertex="1" parent="1">
          <mxGeometry x="372.5" y="480" width="17.5" height="10" as="geometry" />
        </mxCell>
        <mxCell id="NmG1TvLli8cGvgfPySn2-57" value="" style="rounded=0;whiteSpace=wrap;html=1;fillColor=#4D4D4D;" vertex="1" parent="1">
          <mxGeometry x="372.5" y="495" width="17.5" height="10" as="geometry" />
        </mxCell>
        <mxCell id="NmG1TvLli8cGvgfPySn2-58" value="" style="rounded=0;whiteSpace=wrap;html=1;fillColor=#4D4D4D;" vertex="1" parent="1">
          <mxGeometry x="372.5" y="510" width="17.5" height="10" as="geometry" />
        </mxCell>
        <mxCell id="NmG1TvLli8cGvgfPySn2-59" value="" style="rounded=0;whiteSpace=wrap;html=1;fillColor=#4D4D4D;" vertex="1" parent="1">
          <mxGeometry x="377.5" y="512.5" width="17.5" height="5" as="geometry" />
        </mxCell>
        <mxCell id="NmG1TvLli8cGvgfPySn2-60" value="" style="rounded=0;whiteSpace=wrap;html=1;fillColor=#4D4D4D;" vertex="1" parent="1">
          <mxGeometry x="377.5" y="497.5" width="17.5" height="5" as="geometry" />
        </mxCell>
        <mxCell id="NmG1TvLli8cGvgfPySn2-61" value="" style="rounded=0;whiteSpace=wrap;html=1;fillColor=#4D4D4D;" vertex="1" parent="1">
          <mxGeometry x="377.5" y="482.5" width="17.5" height="5" as="geometry" />
        </mxCell>
        <mxCell id="NmG1TvLli8cGvgfPySn2-62" value="" style="rounded=0;whiteSpace=wrap;html=1;fillColor=#4D4D4D;" vertex="1" parent="1">
          <mxGeometry x="385" y="480" width="30" height="40" as="geometry" />
        </mxCell>
        <mxCell id="NmG1TvLli8cGvgfPySn2-63" value="" style="rounded=0;whiteSpace=wrap;html=1;fillColor=#4D4D4D;" vertex="1" parent="1">
          <mxGeometry x="415" y="490" width="15" height="20" as="geometry" />
        </mxCell>
        <mxCell id="NmG1TvLli8cGvgfPySn2-64" value="" style="rounded=0;whiteSpace=wrap;html=1;fillColor=#4D4D4D;" vertex="1" parent="1">
          <mxGeometry x="410" y="492.5" width="15" height="15" as="geometry" />
        </mxCell>
        <mxCell id="NmG1TvLli8cGvgfPySn2-72" value="&lt;font style=&quot;font-size: 6px;&quot;&gt;3V3&lt;/font&gt;" style="text;html=1;align=center;verticalAlign=middle;whiteSpace=wrap;rounded=0;rotation=90;" vertex="1" parent="1">
          <mxGeometry x="317.5" y="350" width="60" height="30" as="geometry" />
        </mxCell>
        <mxCell id="NmG1TvLli8cGvgfPySn2-73" value="&lt;font style=&quot;font-size: 6px;&quot;&gt;CLK&lt;/font&gt;" style="text;html=1;align=center;verticalAlign=middle;whiteSpace=wrap;rounded=0;rotation=-90;" vertex="1" parent="1">
          <mxGeometry x="423" y="710" width="60" height="30" as="geometry" />
        </mxCell>
        <mxCell id="NmG1TvLli8cGvgfPySn2-74" value="&lt;font style=&quot;font-size: 6px;&quot;&gt;D0&lt;/font&gt;" style="text;html=1;align=center;verticalAlign=middle;whiteSpace=wrap;rounded=0;rotation=-90;" vertex="1" parent="1">
          <mxGeometry x="423" y="690" width="60" height="30" as="geometry" />
        </mxCell>
        <mxCell id="NmG1TvLli8cGvgfPySn2-75" value="&lt;font style=&quot;font-size: 6px;&quot;&gt;D1&lt;/font&gt;" style="text;html=1;align=center;verticalAlign=middle;whiteSpace=wrap;rounded=0;rotation=-90;" vertex="1" parent="1">
          <mxGeometry x="423" y="670" width="60" height="30" as="geometry" />
        </mxCell>
        <mxCell id="NmG1TvLli8cGvgfPySn2-76" value="&lt;font style=&quot;font-size: 6px;&quot;&gt;15&lt;/font&gt;" style="text;html=1;align=center;verticalAlign=middle;whiteSpace=wrap;rounded=0;rotation=-90;" vertex="1" parent="1">
          <mxGeometry x="423" y="650" width="60" height="30" as="geometry" />
        </mxCell>
        <mxCell id="NmG1TvLli8cGvgfPySn2-77" value="&lt;font style=&quot;font-size: 6px;&quot;&gt;2&lt;/font&gt;" style="text;html=1;align=center;verticalAlign=middle;whiteSpace=wrap;rounded=0;rotation=-90;" vertex="1" parent="1">
          <mxGeometry x="423" y="630" width="60" height="30" as="geometry" />
        </mxCell>
        <mxCell id="NmG1TvLli8cGvgfPySn2-78" value="&lt;font style=&quot;font-size: 6px;&quot;&gt;0&lt;/font&gt;" style="text;html=1;align=center;verticalAlign=middle;whiteSpace=wrap;rounded=0;rotation=-90;" vertex="1" parent="1">
          <mxGeometry x="423" y="610" width="60" height="30" as="geometry" />
        </mxCell>
        <mxCell id="NmG1TvLli8cGvgfPySn2-79" value="&lt;font style=&quot;font-size: 6px;&quot;&gt;4&lt;/font&gt;" style="text;html=1;align=center;verticalAlign=middle;whiteSpace=wrap;rounded=0;rotation=-90;" vertex="1" parent="1">
          <mxGeometry x="423" y="590" width="60" height="30" as="geometry" />
        </mxCell>
        <mxCell id="NmG1TvLli8cGvgfPySn2-80" value="&lt;font style=&quot;font-size: 6px;&quot;&gt;16&lt;/font&gt;" style="text;html=1;align=center;verticalAlign=middle;whiteSpace=wrap;rounded=0;rotation=-90;" vertex="1" parent="1">
          <mxGeometry x="423" y="570" width="60" height="30" as="geometry" />
        </mxCell>
        <mxCell id="NmG1TvLli8cGvgfPySn2-81" value="&lt;font style=&quot;font-size: 6px;&quot;&gt;17&lt;/font&gt;" style="text;html=1;align=center;verticalAlign=middle;whiteSpace=wrap;rounded=0;rotation=-90;" vertex="1" parent="1">
          <mxGeometry x="423" y="550" width="60" height="30" as="geometry" />
        </mxCell>
        <mxCell id="NmG1TvLli8cGvgfPySn2-82" value="&lt;font style=&quot;font-size: 6px;&quot;&gt;5&lt;/font&gt;" style="text;html=1;align=center;verticalAlign=middle;whiteSpace=wrap;rounded=0;rotation=-90;" vertex="1" parent="1">
          <mxGeometry x="423" y="530" width="60" height="30" as="geometry" />
        </mxCell>
        <mxCell id="NmG1TvLli8cGvgfPySn2-83" value="&lt;font style=&quot;font-size: 6px;&quot;&gt;18&lt;/font&gt;" style="text;html=1;align=center;verticalAlign=middle;whiteSpace=wrap;rounded=0;rotation=-90;" vertex="1" parent="1">
          <mxGeometry x="423" y="510" width="60" height="30" as="geometry" />
        </mxCell>
        <mxCell id="NmG1TvLli8cGvgfPySn2-84" value="&lt;font style=&quot;font-size: 6px;&quot;&gt;19&lt;/font&gt;" style="text;html=1;align=center;verticalAlign=middle;whiteSpace=wrap;rounded=0;rotation=-90;" vertex="1" parent="1">
          <mxGeometry x="423" y="490" width="60" height="30" as="geometry" />
        </mxCell>
        <mxCell id="NmG1TvLli8cGvgfPySn2-85" value="&lt;font style=&quot;font-size: 6px;&quot;&gt;GND&lt;/font&gt;" style="text;html=1;align=center;verticalAlign=middle;whiteSpace=wrap;rounded=0;rotation=-90;" vertex="1" parent="1">
          <mxGeometry x="423" y="470" width="60" height="30" as="geometry" />
        </mxCell>
        <mxCell id="NmG1TvLli8cGvgfPySn2-86" value="&lt;font style=&quot;font-size: 6px;&quot;&gt;21&lt;/font&gt;" style="text;html=1;align=center;verticalAlign=middle;whiteSpace=wrap;rounded=0;rotation=-90;" vertex="1" parent="1">
          <mxGeometry x="423" y="450" width="60" height="30" as="geometry" />
        </mxCell>
        <mxCell id="NmG1TvLli8cGvgfPySn2-87" value="&lt;font style=&quot;font-size: 6px;&quot;&gt;RX&lt;/font&gt;" style="text;html=1;align=center;verticalAlign=middle;whiteSpace=wrap;rounded=0;rotation=-90;" vertex="1" parent="1">
          <mxGeometry x="423" y="430" width="60" height="30" as="geometry" />
        </mxCell>
        <mxCell id="NmG1TvLli8cGvgfPySn2-88" value="&lt;font style=&quot;font-size: 6px;&quot;&gt;TX&lt;/font&gt;" style="text;html=1;align=center;verticalAlign=middle;whiteSpace=wrap;rounded=0;rotation=-90;" vertex="1" parent="1">
          <mxGeometry x="423" y="410" width="60" height="30" as="geometry" />
        </mxCell>
        <mxCell id="NmG1TvLli8cGvgfPySn2-89" value="&lt;font style=&quot;font-size: 6px;&quot;&gt;22&lt;/font&gt;" style="text;html=1;align=center;verticalAlign=middle;whiteSpace=wrap;rounded=0;rotation=-90;" vertex="1" parent="1">
          <mxGeometry x="423" y="390" width="60" height="30" as="geometry" />
        </mxCell>
        <mxCell id="NmG1TvLli8cGvgfPySn2-90" value="&lt;font style=&quot;font-size: 6px;&quot;&gt;23&lt;/font&gt;" style="text;html=1;align=center;verticalAlign=middle;whiteSpace=wrap;rounded=0;rotation=-90;" vertex="1" parent="1">
          <mxGeometry x="423" y="370" width="60" height="30" as="geometry" />
        </mxCell>
        <mxCell id="NmG1TvLli8cGvgfPySn2-91" value="&lt;font style=&quot;font-size: 6px;&quot;&gt;GND&lt;/font&gt;" style="text;html=1;align=center;verticalAlign=middle;whiteSpace=wrap;rounded=0;rotation=-90;" vertex="1" parent="1">
          <mxGeometry x="423" y="350" width="60" height="30" as="geometry" />
        </mxCell>
        <mxCell id="NmG1TvLli8cGvgfPySn2-92" value="&lt;font style=&quot;font-size: 6px;&quot;&gt;EN&lt;/font&gt;" style="text;html=1;align=center;verticalAlign=middle;whiteSpace=wrap;rounded=0;rotation=90;" vertex="1" parent="1">
          <mxGeometry x="317.5" y="370" width="60" height="30" as="geometry" />
        </mxCell>
        <mxCell id="NmG1TvLli8cGvgfPySn2-93" value="&lt;font style=&quot;font-size: 6px;&quot;&gt;VP&lt;/font&gt;" style="text;html=1;align=center;verticalAlign=middle;whiteSpace=wrap;rounded=0;rotation=90;" vertex="1" parent="1">
          <mxGeometry x="317.5" y="390" width="60" height="30" as="geometry" />
        </mxCell>
        <mxCell id="NmG1TvLli8cGvgfPySn2-94" value="&lt;font style=&quot;font-size: 6px;&quot;&gt;VN&lt;/font&gt;" style="text;html=1;align=center;verticalAlign=middle;whiteSpace=wrap;rounded=0;rotation=90;" vertex="1" parent="1">
          <mxGeometry x="317.5" y="410" width="60" height="30" as="geometry" />
        </mxCell>
        <mxCell id="NmG1TvLli8cGvgfPySn2-95" value="&lt;font style=&quot;font-size: 6px;&quot;&gt;34&lt;/font&gt;" style="text;html=1;align=center;verticalAlign=middle;whiteSpace=wrap;rounded=0;rotation=90;" vertex="1" parent="1">
          <mxGeometry x="317.5" y="430" width="60" height="30" as="geometry" />
        </mxCell>
        <mxCell id="NmG1TvLli8cGvgfPySn2-96" value="&lt;font style=&quot;font-size: 6px;&quot;&gt;35&lt;/font&gt;" style="text;html=1;align=center;verticalAlign=middle;whiteSpace=wrap;rounded=0;rotation=90;" vertex="1" parent="1">
          <mxGeometry x="317.5" y="450" width="60" height="30" as="geometry" />
        </mxCell>
        <mxCell id="NmG1TvLli8cGvgfPySn2-97" value="&lt;font style=&quot;font-size: 6px;&quot;&gt;32&lt;/font&gt;" style="text;html=1;align=center;verticalAlign=middle;whiteSpace=wrap;rounded=0;rotation=90;" vertex="1" parent="1">
          <mxGeometry x="317.5" y="470" width="60" height="30" as="geometry" />
        </mxCell>
        <mxCell id="NmG1TvLli8cGvgfPySn2-98" value="&lt;font style=&quot;font-size: 6px;&quot;&gt;33&lt;/font&gt;" style="text;html=1;align=center;verticalAlign=middle;whiteSpace=wrap;rounded=0;rotation=90;" vertex="1" parent="1">
          <mxGeometry x="317.5" y="487.5" width="60" height="30" as="geometry" />
        </mxCell>
        <mxCell id="NmG1TvLli8cGvgfPySn2-99" value="&lt;font style=&quot;font-size: 6px;&quot;&gt;25&lt;/font&gt;" style="text;html=1;align=center;verticalAlign=middle;whiteSpace=wrap;rounded=0;rotation=90;" vertex="1" parent="1">
          <mxGeometry x="317.5" y="510" width="60" height="30" as="geometry" />
        </mxCell>
        <mxCell id="NmG1TvLli8cGvgfPySn2-100" value="&lt;font style=&quot;font-size: 6px;&quot;&gt;26&lt;/font&gt;" style="text;html=1;align=center;verticalAlign=middle;whiteSpace=wrap;rounded=0;rotation=90;" vertex="1" parent="1">
          <mxGeometry x="317.5" y="530" width="60" height="30" as="geometry" />
        </mxCell>
        <mxCell id="NmG1TvLli8cGvgfPySn2-101" value="&lt;font style=&quot;font-size: 6px;&quot;&gt;27&lt;/font&gt;" style="text;html=1;align=center;verticalAlign=middle;whiteSpace=wrap;rounded=0;rotation=90;" vertex="1" parent="1">
          <mxGeometry x="317.5" y="550" width="60" height="30" as="geometry" />
        </mxCell>
        <mxCell id="NmG1TvLli8cGvgfPySn2-102" value="&lt;font style=&quot;font-size: 6px;&quot;&gt;14&lt;/font&gt;" style="text;html=1;align=center;verticalAlign=middle;whiteSpace=wrap;rounded=0;rotation=90;" vertex="1" parent="1">
          <mxGeometry x="317.5" y="570" width="60" height="30" as="geometry" />
        </mxCell>
        <mxCell id="NmG1TvLli8cGvgfPySn2-103" value="&lt;span style=&quot;font-size: 6px;&quot;&gt;12&lt;/span&gt;" style="text;html=1;align=center;verticalAlign=middle;whiteSpace=wrap;rounded=0;rotation=90;" vertex="1" parent="1">
          <mxGeometry x="317.5" y="590" width="60" height="30" as="geometry" />
        </mxCell>
        <mxCell id="NmG1TvLli8cGvgfPySn2-104" value="&lt;span style=&quot;font-size: 6px;&quot;&gt;GND&lt;/span&gt;" style="text;html=1;align=center;verticalAlign=middle;whiteSpace=wrap;rounded=0;rotation=90;" vertex="1" parent="1">
          <mxGeometry x="317.5" y="610" width="60" height="30" as="geometry" />
        </mxCell>
        <mxCell id="NmG1TvLli8cGvgfPySn2-105" value="&lt;span style=&quot;font-size: 6px;&quot;&gt;13&lt;/span&gt;" style="text;html=1;align=center;verticalAlign=middle;whiteSpace=wrap;rounded=0;rotation=90;" vertex="1" parent="1">
          <mxGeometry x="317.5" y="630" width="60" height="30" as="geometry" />
        </mxCell>
        <mxCell id="NmG1TvLli8cGvgfPySn2-106" value="&lt;span style=&quot;font-size: 6px;&quot;&gt;D2&lt;/span&gt;" style="text;html=1;align=center;verticalAlign=middle;whiteSpace=wrap;rounded=0;rotation=90;" vertex="1" parent="1">
          <mxGeometry x="317.5" y="650" width="60" height="30" as="geometry" />
        </mxCell>
        <mxCell id="NmG1TvLli8cGvgfPySn2-107" value="&lt;span style=&quot;font-size: 6px;&quot;&gt;D3&lt;/span&gt;" style="text;html=1;align=center;verticalAlign=middle;whiteSpace=wrap;rounded=0;rotation=90;" vertex="1" parent="1">
          <mxGeometry x="317.5" y="670" width="60" height="30" as="geometry" />
        </mxCell>
        <mxCell id="NmG1TvLli8cGvgfPySn2-108" value="&lt;span style=&quot;font-size: 6px;&quot;&gt;CMD&lt;/span&gt;" style="text;html=1;align=center;verticalAlign=middle;whiteSpace=wrap;rounded=0;rotation=90;" vertex="1" parent="1">
          <mxGeometry x="317.5" y="690" width="60" height="30" as="geometry" />
        </mxCell>
        <mxCell id="NmG1TvLli8cGvgfPySn2-109" value="&lt;span style=&quot;font-size: 6px;&quot;&gt;5V&lt;/span&gt;" style="text;html=1;align=center;verticalAlign=middle;whiteSpace=wrap;rounded=0;rotation=90;" vertex="1" parent="1">
          <mxGeometry x="317.5" y="710" width="60" height="30" as="geometry" />
        </mxCell>
        <mxCell id="NmG1TvLli8cGvgfPySn2-116" style="edgeStyle=orthogonalEdgeStyle;rounded=0;orthogonalLoop=1;jettySize=auto;html=1;entryX=0;entryY=0.5;entryDx=0;entryDy=0;endArrow=none;endFill=0;" edge="1" parent="1" source="NmG1TvLli8cGvgfPySn2-120">
          <mxGeometry relative="1" as="geometry">
            <mxPoint x="503" y="202.5" as="targetPoint" />
            <Array as="points">
              <mxPoint x="280" y="202" />
            </Array>
          </mxGeometry>
        </mxCell>
        <mxCell id="NmG1TvLli8cGvgfPySn2-123" value="" style="rounded=0;whiteSpace=wrap;html=1;rotation=90;" vertex="1" parent="1">
          <mxGeometry x="646" y="230.63" width="105" height="60" as="geometry" />
        </mxCell>
        <mxCell id="NmG1TvLli8cGvgfPySn2-151" style="edgeStyle=orthogonalEdgeStyle;rounded=0;orthogonalLoop=1;jettySize=auto;html=1;exitX=0.5;exitY=0;exitDx=0;exitDy=0;endArrow=none;endFill=0;" edge="1" parent="1" source="NmG1TvLli8cGvgfPySn2-124">
          <mxGeometry relative="1" as="geometry">
            <mxPoint x="530" y="170" as="targetPoint" />
          </mxGeometry>
        </mxCell>
        <mxCell id="NmG1TvLli8cGvgfPySn2-124" value="" style="rounded=0;whiteSpace=wrap;html=1;" vertex="1" parent="1">
          <mxGeometry x="676" y="213.13" width="17.5" height="17.5" as="geometry" />
        </mxCell>
        <mxCell id="NmG1TvLli8cGvgfPySn2-152" style="edgeStyle=orthogonalEdgeStyle;rounded=0;orthogonalLoop=1;jettySize=auto;html=1;exitX=0.5;exitY=0;exitDx=0;exitDy=0;endArrow=none;endFill=0;" edge="1" parent="1" source="NmG1TvLli8cGvgfPySn2-126">
          <mxGeometry relative="1" as="geometry">
            <mxPoint x="870" y="170" as="targetPoint" />
          </mxGeometry>
        </mxCell>
        <mxCell id="NmG1TvLli8cGvgfPySn2-126" value="" style="rounded=0;whiteSpace=wrap;html=1;" vertex="1" parent="1">
          <mxGeometry x="706" y="213.13" width="17" height="17.5" as="geometry" />
        </mxCell>
        <mxCell id="NmG1TvLli8cGvgfPySn2-127" value="" style="rounded=0;whiteSpace=wrap;html=1;" vertex="1" parent="1">
          <mxGeometry x="671" y="300.63" width="55" height="10" as="geometry" />
        </mxCell>
        <mxCell id="NmG1TvLli8cGvgfPySn2-128" style="edgeStyle=orthogonalEdgeStyle;rounded=0;orthogonalLoop=1;jettySize=auto;html=1;entryX=0.5;entryY=1;entryDx=0;entryDy=0;endArrow=none;endFill=0;strokeColor=#FFFF33;" edge="1" parent="1" source="NmG1TvLli8cGvgfPySn2-13" target="NmG1TvLli8cGvgfPySn2-133">
          <mxGeometry relative="1" as="geometry">
            <Array as="points">
              <mxPoint x="300" y="445" />
              <mxPoint x="300" y="340" />
              <mxPoint x="699" y="340" />
            </Array>
          </mxGeometry>
        </mxCell>
        <mxCell id="NmG1TvLli8cGvgfPySn2-129" value="" style="ellipse;whiteSpace=wrap;html=1;aspect=fixed;" vertex="1" parent="1">
          <mxGeometry x="679.75" y="216.88" width="10" height="10" as="geometry" />
        </mxCell>
        <mxCell id="NmG1TvLli8cGvgfPySn2-130" value="" style="ellipse;whiteSpace=wrap;html=1;aspect=fixed;" vertex="1" parent="1">
          <mxGeometry x="709.5" y="216.88" width="10" height="10" as="geometry" />
        </mxCell>
        <mxCell id="NmG1TvLli8cGvgfPySn2-131" value="Current Sensor" style="text;html=1;align=center;verticalAlign=middle;whiteSpace=wrap;rounded=0;" vertex="1" parent="1">
          <mxGeometry x="668.5" y="245.63" width="60" height="30" as="geometry" />
        </mxCell>
        <mxCell id="NmG1TvLli8cGvgfPySn2-132" value="" style="rounded=0;whiteSpace=wrap;html=1;" vertex="1" parent="1">
          <mxGeometry x="671" y="300.63" width="15" height="10" as="geometry" />
        </mxCell>
        <mxCell id="NmG1TvLli8cGvgfPySn2-133" value="" style="rounded=0;whiteSpace=wrap;html=1;" vertex="1" parent="1">
          <mxGeometry x="691" y="300.63" width="15" height="10" as="geometry" />
        </mxCell>
        <mxCell id="NmG1TvLli8cGvgfPySn2-134" style="edgeStyle=orthogonalEdgeStyle;rounded=0;orthogonalLoop=1;jettySize=auto;html=1;entryX=0.5;entryY=1;entryDx=0;entryDy=0;endArrow=none;endFill=0;strokeColor=#FF0000;" edge="1" parent="1" source="NmG1TvLli8cGvgfPySn2-135" target="NmG1TvLli8cGvgfPySn2-109">
          <mxGeometry relative="1" as="geometry">
            <Array as="points">
              <mxPoint x="719" y="760" />
              <mxPoint x="313" y="760" />
              <mxPoint x="313" y="725" />
            </Array>
          </mxGeometry>
        </mxCell>
        <mxCell id="NmG1TvLli8cGvgfPySn2-135" value="" style="rounded=0;whiteSpace=wrap;html=1;" vertex="1" parent="1">
          <mxGeometry x="711" y="300.63" width="15" height="10" as="geometry" />
        </mxCell>
        <mxCell id="NmG1TvLli8cGvgfPySn2-136" value="&lt;font style=&quot;font-size: 6px;&quot;&gt;GND&lt;/font&gt;" style="text;html=1;align=center;verticalAlign=middle;whiteSpace=wrap;rounded=0;" vertex="1" parent="1">
          <mxGeometry x="670" y="275.63" width="20" height="30" as="geometry" />
        </mxCell>
        <mxCell id="NmG1TvLli8cGvgfPySn2-137" value="&lt;font style=&quot;font-size: 6px;&quot;&gt;OUT&lt;/font&gt;" style="text;html=1;align=center;verticalAlign=middle;whiteSpace=wrap;rounded=0;" vertex="1" parent="1">
          <mxGeometry x="690" y="275.63" width="20" height="30" as="geometry" />
        </mxCell>
        <mxCell id="NmG1TvLli8cGvgfPySn2-138" value="&lt;font style=&quot;font-size: 6px;&quot;&gt;VCC&lt;/font&gt;" style="text;html=1;align=center;verticalAlign=middle;whiteSpace=wrap;rounded=0;" vertex="1" parent="1">
          <mxGeometry x="708.5" y="275.63" width="20" height="30" as="geometry" />
        </mxCell>
        <mxCell id="NmG1TvLli8cGvgfPySn2-158" value="" style="endArrow=classic;html=1;rounded=0;" edge="1" parent="1">
          <mxGeometry width="50" height="50" relative="1" as="geometry">
            <mxPoint x="550" y="180" as="sourcePoint" />
            <mxPoint x="660" y="180" as="targetPoint" />
          </mxGeometry>
        </mxCell>
        <mxCell id="NmG1TvLli8cGvgfPySn2-161" value="Main Grid" style="edgeLabel;html=1;align=center;verticalAlign=middle;resizable=0;points=[];" vertex="1" connectable="0" parent="NmG1TvLli8cGvgfPySn2-158">
          <mxGeometry x="-0.1166" relative="1" as="geometry">
            <mxPoint x="12" as="offset" />
          </mxGeometry>
        </mxCell>
        <mxCell id="NmG1TvLli8cGvgfPySn2-162" value="" style="endArrow=classic;html=1;rounded=0;" edge="1" parent="1">
          <mxGeometry width="50" height="50" relative="1" as="geometry">
            <mxPoint x="740" y="180" as="sourcePoint" />
            <mxPoint x="850" y="180" as="targetPoint" />
          </mxGeometry>
        </mxCell>
        <mxCell id="NmG1TvLli8cGvgfPySn2-163" value="Main Grid" style="edgeLabel;html=1;align=center;verticalAlign=middle;resizable=0;points=[];" vertex="1" connectable="0" parent="NmG1TvLli8cGvgfPySn2-162">
          <mxGeometry x="-0.1166" relative="1" as="geometry">
            <mxPoint x="12" as="offset" />
          </mxGeometry>
        </mxCell>
      </root>
    </mxGraphModel>
  </diagram>
</mxfile>
